<?xml version="1.0" encoding="UTF-8"?>
<svg id="Layer_1" data-name="Layer 1" xmlns="http://www.w3.org/2000/svg" viewBox="0 0 250.79 139.83">
  <defs>
    <style>
      .cls-1 {
        fill: #fff;
        stroke-width: 0px;
      }
    </style>
  </defs>
  <g>
    <g>
      <path class="cls-1" d="M93.78,43.06c0,2.11-2.3,5.64-6.89,10.61-3.24,3.29-6.48,6.59-9.72,9.88-.76.81-1.89,2.51-3.4,5.1,3.56-3.94,6.67-5.91,9.32-5.91,1.24,0,2.27.47,3.08,1.42.81.95,1.21,2.04,1.21,3.28,0,2.81-1.3,5.21-3.89,7.21-2.38,1.84-5.05,2.84-8.02,3-.59,2.48-.89,4.86-.89,7.13,0,4,1.11,5.99,3.32,5.99,3.19,0,7.51-4.29,12.96-12.88h1.54c-3.35,4.81-5.43,7.7-6.24,8.67-3.08,3.56-5.89,5.35-8.43,5.35-1.94,0-3.48-.94-4.62-2.84-1.03-1.62-1.54-3.46-1.54-5.51,0-1.4.24-3.35.73-5.83.65-3.08,1.35-4.62,2.11-4.62l.32.24c-.32.54-.49,1.19-.49,1.94,0,.81.38,1.21,1.13,1.21,1.73,0,3.71-1.32,5.95-3.97,2.24-2.65,3.36-4.86,3.36-6.64,0-1.4-.73-2.11-2.19-2.11-2.38,0-6.72,4.13-13.04,12.39-6.1,8.05-9.21,13.31-9.32,15.8h-.32c-.7-.86-1.05-1.81-1.05-2.84,0-1.78.73-3.81,2.19-6.08l20.74-32.49c1.94-3.08,3.29-5.08,4.05-5.99,2.05-2.43,3.94-3.65,5.67-3.65,1.57,0,2.35.7,2.35,2.11ZM92.65,42.82c0-.59-.4-.89-1.22-.89-1.24,0-3.92,3.27-8.02,9.8-2.86,4.59-4.83,7.97-5.91,10.13,2.81-2.59,5.75-5.64,8.83-9.15,4.21-4.86,6.32-8.15,6.32-9.88Z"/>
      <path class="cls-1" d="M119.54,78.13c-3.13,3.84-6.29,6.95-9.47,9.32-2.59,1.89-6.43,4.13-11.5,6.72-3.3,5.13-6.59,10.23-9.88,15.31-4.81,6.8-9.21,10.21-13.2,10.21-.97,0-1.8-.38-2.47-1.13-.67-.76-1.01-1.62-1.01-2.59,0-3.3,1.38-6.37,4.13-9.24,2.05-2.11,5.1-4.32,9.15-6.64,3.08-1.67,6.18-3.35,9.32-5.02.97-1.67,2.43-4.21,4.37-7.61-3.13,3.29-5.64,4.94-7.53,4.94-1.24,0-2.27-.62-3.08-1.86-.76-1.08-1.13-2.29-1.13-3.65,0-4.75,4.1-12.61,12.31-23.57h4.05c-4.75,7.08-7.53,11.23-8.34,12.48-3.94,6.37-5.91,10.61-5.91,12.72,0,.65.24,1.27.73,1.86.49.6,1.05.89,1.7.89,2.43,0,6.02-3.75,10.77-11.26l10.61-16.69h3.97l-17.82,29.08c5.02-2.59,8.45-4.54,10.29-5.83,2.7-1.94,5.53-4.77,8.5-8.44h1.46ZM93.54,97.26c-4.75,2-8.94,4.4-12.56,7.21-4.97,3.94-7.45,7.78-7.45,11.5,0,.54.23,1.11.69,1.7.46.59.99.89,1.58.89,4.54,0,10.45-7.1,17.74-21.31Z"/>
      <path class="cls-1" d="M143.77,78.14c-6.64,9.67-12.37,14.5-17.17,14.5-1.13,0-2.13-.53-3-1.58-.86-1.05-1.3-2.15-1.3-3.28,0-2.27.92-4.83,2.75-7.7.65-1.03,2.35-3.27,5.1-6.72,1.84-2.32,2.75-3.94,2.75-4.86,0-1.08-.81-1.75-2.43-2.03-.49-.05-1.73-.08-3.73-.08-2.43,4.65-4.76,8.55-7.29,11.85l-1.51.06c2.7-3.78,4.02-5.81,4.18-6.08,1.57-2.38,2.67-4.56,3.32-6.56-.32-1.08-.49-1.97-.49-2.67,0-1.19.38-2.47,1.13-3.85.76-1.38,1.7-2.07,2.84-2.07.86,0,1.3.51,1.3,1.54,0,1.89-.84,4.05-2.51,6.48h1.46c4.43,0,6.64,1.35,6.64,4.05,0,1.46-1.85,4.67-5.55,9.64-3.7,4.97-5.55,8.32-5.55,10.05,0,.59.22,1.16.65,1.7.43.54.94.81,1.54.81,3.78,0,8.94-4.4,15.47-13.2h1.38Z"/>
      <path class="cls-1" d="M171.63,75.87c-2,4.43-5,6.64-8.99,6.64-1.57,0-3.11-.38-4.62-1.13-5.13,7.35-9.51,11.02-13.12,11.02-1.62,0-3-.81-4.13-2.43-.97-1.46-1.46-3.02-1.46-4.7,0-4.75,1.92-9.61,5.75-14.58,4.1-5.24,8.43-7.86,12.96-7.86,3.62,0,5.43,1.73,5.43,5.18,0,2-.49,4.11-1.46,6.32-.38.97-1.38,2.94-3,5.91.76.65,1.92.97,3.48.97,3.24,0,5.83-1.78,7.78-5.35h1.38ZM162.07,68.5c0-2.81-1.03-4.21-3.08-4.21-3.24,0-6.91,3-11.02,8.99-3.94,5.67-5.91,10.26-5.91,13.77,0,.97.3,1.86.89,2.67.59.81,1.35,1.22,2.27,1.22,3.02,0,6.91-3.48,11.67-10.45-.49-1.35-.73-2.54-.73-3.56s.22-2.03.65-3c.54-1.19,1.27-1.78,2.19-1.78.97,0,1.51.68,1.62,2.03.97-1.62,1.46-3.51,1.46-5.67Z"/>
      <path class="cls-1" d="M198.69,75.87c-2,4.43-5,6.64-8.99,6.64-1.57,0-3.11-.38-4.62-1.13-5.13,7.35-9.51,11.02-13.12,11.02-1.62,0-3-.81-4.13-2.43-.97-1.46-1.46-3.02-1.46-4.7,0-4.75,1.92-9.61,5.75-14.58,4.1-5.24,8.43-7.86,12.96-7.86,3.62,0,5.43,1.73,5.43,5.18,0,2-.49,4.11-1.46,6.32-.38.97-1.38,2.94-3,5.91.76.65,1.92.97,3.48.97,3.24,0,5.83-1.78,7.78-5.35h1.38ZM189.13,68.5c0-2.81-1.03-4.21-3.08-4.21-3.24,0-6.91,3-11.02,8.99-3.94,5.67-5.91,10.26-5.91,13.77,0,.97.3,1.86.89,2.67.59.81,1.35,1.22,2.27,1.22,3.02,0,6.91-3.48,11.67-10.45-.49-1.35-.73-2.54-.73-3.56s.22-2.03.65-3c.54-1.19,1.27-1.78,2.19-1.78.97,0,1.51.68,1.62,2.03.97-1.62,1.46-3.51,1.46-5.67Z"/>
      <path class="cls-1" d="M238.63,78.14c-1.84,3.56-3.94,6.62-6.32,9.15-3.19,3.35-6.29,5.02-9.32,5.02-1.24,0-2.32-.49-3.24-1.46-.92-.97-1.38-2.08-1.38-3.32,0-2.59,1.81-6.49,5.43-11.71,3.62-5.21,5.43-8.47,5.43-9.76s-.78-1.86-2.35-1.86c-2.92,0-7.13,3.92-12.64,11.75-4.65,6.7-7.72,12.12-9.24,16.28-1.46-1.08-2.19-2.21-2.19-3.4,0-.7,2.07-4.17,6.2-10.41,4.13-6.24,6.2-10.22,6.2-11.95,0-.59-.27-1.11-.81-1.54-.54-.43-1.13-.65-1.78-.65-2.48,0-6.43,3.94-11.83,11.83-4.7,6.86-7.75,12.18-9.15,15.96-1.13-.7-1.7-1.73-1.7-3.08,0-1.62,2.03-5.72,6.08-12.31,4.43-7.07,6.94-11.8,7.53-14.18,1.03.54,1.54,1.73,1.54,3.56,0,1.08-.19,2.03-.57,2.84,2.97-4,5.99-5.99,9.07-5.99,1.03,0,1.92.45,2.67,1.34.76.89,1.13,1.85,1.13,2.88,0,1.08-.16,2.16-.49,3.24,3.4-5.08,6.94-7.61,10.61-7.61,1.24,0,2.28.45,3.12,1.34.84.89,1.26,1.96,1.26,3.2,0,2.32-1.84,6.13-5.51,11.42-3.67,5.29-5.51,8.62-5.51,9.96,0,.54.28,1.04.85,1.5.57.46,1.12.69,1.66.69,3.94,0,8.53-4.24,13.77-12.72h1.46Z"/>
    </g>
    <path class="cls-1" d="M76.44,26.07c0,7.36-5.72,16.15-17.17,26.37.2,1.84.31,3.71.31,5.62,0,9.27-1.94,17.34-5.83,24.22-4.7,8.38-11.31,12.57-19.83,12.57-5.66,0-10.8-2.22-15.43-6.64-1.64,2.18-2.35,4.77-2.15,7.77l-.92.92c-1.23-.07-1.84-1.09-1.84-3.07,0-1.7,1.12-4.05,3.37-7.05-3.2-5.59-4.8-10.87-4.8-15.84,0-6.75,2.45-13.25,7.36-19.52,5.25-6.68,11.14-10.02,17.68-10.02,2.72,0,5.04.75,6.95,2.25,1.98,1.7,2.96,3.92,2.96,6.64,0,1.57-.38,3.13-1.12,4.7-.96,1.98-2.15,2.93-3.58,2.86l-.82-.51v-.92c2.25-2.25,3.37-4.43,3.37-6.54s-.68-3.78-2.04-5.01c-1.36-1.23-3.13-1.84-5.31-1.84-6,0-11.28,3.61-15.84,10.83-4.09,6.41-6.13,12.81-6.13,19.21,0,4.57,1.09,8.52,3.27,11.86l35.97-31.17c0-6.74,1.23-13.52,3.68-20.34,3.2-8.86,7.53-13.29,12.98-13.29,1.43,0,2.61.61,3.53,1.84.92,1.23,1.38,2.59,1.38,4.09ZM54.98,56.22l-32.91,28.31c-.68.55-1.36,1.3-2.04,2.25,4.29,4.29,8.89,6.44,13.8,6.44,2.45,0,4.73-.48,6.85-1.43,6.54-2.93,10.76-7.94,12.67-15.02,1.09-3.88,1.64-10.73,1.64-20.54ZM75.01,26.27c0-1.16-.31-2.23-.92-3.22-.61-.99-1.5-1.48-2.66-1.48-4.16,0-7.43,3.85-9.81,11.55-1.77,5.72-2.66,11.34-2.66,16.86,10.7-9.2,16.05-17.1,16.05-23.71Z"/>
  </g>
  <g>
    <path class="cls-1" d="M173.3,107.74c.14,0,1.96-.07,2.16-.1.49-.08.63-.22.78-.75.05-.17.12-.51.14-.83,0-.08.05-.12.12-.12l.42.02c.08,0,.12.07.1.14-.05.29-.05,1.68-.05,1.94,0,.59.07,1.41.1,1.77,0,.08-.03.12-.1.14l-.37.05c-.08.02-.12-.03-.14-.15-.03-.22-.14-.61-.19-.8-.1-.36-.29-.61-.73-.66-.8-.08-1.97-.08-2.24-.08v1.05c0,.92.03,2.57.03,2.91.02.88.44,1.22.97,1.33.34.07.83.12,1.26.12.29,0,1.14-.02,1.5-.05.29-.03,1.04-.22,1.48-.6.2-.17,1.16-1.39,1.39-1.78.05-.08.1-.15.2-.1l.27.15c.08.05.08.1.03.24l-.9,2.5c-.05.15-.17.25-.37.25-.08,0-.46-.02-1.48-.03-1.02,0-2.67-.02-5.32-.02-.63,0-1.1.02-1.44.02-.36.02-.58.03-.73.03-.1,0-.15-.03-.15-.12v-.46c0-.07.05-.08.17-.08h.68c.78,0,.85-.12.85-.75v-5.69c0-1.41-.03-3.54-.05-3.71-.07-.54-.24-.66-.87-.66h-.61c-.09,0-.14-.02-.14-.12v-.46c0-.05.03-.08.12-.08.37,0,.97.05,2.09.05h.75c1.68,0,3.37-.02,5.05-.02.27,0,.59-.03.68-.03s.12.03.14.08l.87,2.74c.02.07.02.12-.05.15l-.25.14c-.05.03-.12-.02-.14-.05-.03-.07-1.29-1.68-1.7-1.94-.36-.24-.83-.44-1.29-.46l-3.03-.07v4.98Z"/>
    <path class="cls-1" d="M181.03,102.28c0-.08.02-.12.12-.12.17,0,.73.05,2.06.05,1.43,0,2.19-.05,2.35-.05s.17.05.17.12v.39c0,.08-.02.15-.14.15h-.82c-.48,0-.71.15-.71.44,0,.14.02.34.07.58.1.61.73,2.63,1.04,3.59.2.65,1.19,3.57,1.58,4.61h.03c.36-.8,1.68-4.3,1.82-4.69.17-.46.82-2.41,1.07-3.16.14-.42.24-.73.24-.97,0-.2-.12-.39-.54-.39h-.44c-.07,0-.08-.05-.08-.15v-.39c0-.08.02-.12.1-.12.15,0,.93.05,2.01.05,1.24,0,1.67-.05,1.82-.05.1,0,.12.03.12.12v.42c0,.07-.02.12-.12.12h-.46c-.56,0-.88.27-1.21.66-.44.54-1.8,4.03-2.09,4.74-.2.56-2.4,5.97-2.48,6.14-.07.14-.15.22-.24.22-.14,0-.2-.17-.29-.39-.54-1.56-1.92-5.44-2.14-6.05l-.17-.58c-.41-1.21-1.21-3.67-1.43-4.18-.17-.39-.34-.56-.7-.56h-.44c-.07,0-.08-.05-.08-.12v-.42Z"/>
    <path class="cls-1" d="M196.61,107.74c.14,0,1.96-.07,2.16-.1.49-.08.63-.22.78-.75.05-.17.12-.51.14-.83,0-.08.05-.12.12-.12l.42.02c.09,0,.12.07.1.14-.05.29-.05,1.68-.05,1.94,0,.59.07,1.41.1,1.77,0,.08-.03.12-.1.14l-.37.05c-.08.02-.12-.03-.14-.15-.03-.22-.14-.61-.19-.8-.1-.36-.29-.61-.73-.66-.8-.08-1.97-.08-2.24-.08v1.05c0,.92.03,2.57.03,2.91.02.88.44,1.22.97,1.33.34.07.83.12,1.26.12.29,0,1.14-.02,1.5-.05.29-.03,1.04-.22,1.48-.6.2-.17,1.16-1.39,1.39-1.78.05-.08.1-.15.2-.1l.27.15c.08.05.08.1.03.24l-.9,2.5c-.05.15-.17.25-.37.25-.08,0-.46-.02-1.48-.03-1.02,0-2.67-.02-5.32-.02-.63,0-1.1.02-1.44.02-.36.02-.58.03-.73.03-.1,0-.15-.03-.15-.12v-.46c0-.07.05-.08.17-.08h.68c.78,0,.85-.12.85-.75v-5.69c0-1.41-.03-3.54-.05-3.71-.07-.54-.24-.66-.87-.66h-.61c-.08,0-.14-.02-.14-.12v-.46c0-.05.03-.08.12-.08.37,0,.97.05,2.09.05h.75c1.68,0,3.37-.02,5.05-.02.27,0,.59-.03.68-.03s.12.03.14.08l.87,2.74c.02.07.02.12-.05.15l-.26.14c-.05.03-.12-.02-.14-.05-.03-.07-1.29-1.68-1.7-1.94-.36-.24-.83-.44-1.29-.46l-3.03-.07v4.98Z"/>
    <path class="cls-1" d="M206.16,104.43c0-1-.51-1.56-1.12-1.58l-.7-.02c-.08,0-.1-.07-.1-.12v-.44c0-.07.02-.1.1-.1s.22.02.48.02c.25.02.63.03,1.21.03s.94-.03,1.14-.03c.22,0,.36.07.49.22l3.57,4.62c.19.24,3.06,3.76,3.47,4.3h.07v-2.02c0-1.51-.02-2.35-.05-3.2-.02-.66-.1-2.33-.2-2.62-.14-.43-.46-.66-.94-.66h-.54c-.07,0-.1-.03-.1-.12v-.44c0-.07.03-.1.1-.1.24,0,.78.05,1.87.05,1.02,0,1.43-.05,1.65-.05.12,0,.14.05.14.12v.42c0,.07-.03.12-.1.12h-.46c-.46,0-.63.29-.66.94-.07,1.14-.07,2.82-.07,3.93v6.36c0,.24-.02.41-.08.41-.2,0-.36-.2-.41-.27l-2.07-2.62c-1.19-1.48-2.43-3.04-2.53-3.15-.19-.17-3.31-4.1-3.42-4.23h-.1v3.77c0,1.58.14,4.35.17,4.69.07.66.17.99.63.99h.51c.12,0,.14.05.14.15v.37c0,.1-.02.14-.14.14-.17,0-1.19-.05-1.65-.05-.36,0-1.53.05-1.7.05-.07,0-.08-.03-.08-.12v-.44c0-.05.02-.1.1-.1h.58c.49,0,.68-.2.76-1.04.03-.32.07-2.26.07-5.29v-2.89Z"/>
    <path class="cls-1" d="M222.43,102.83h-.42c-.54,0-2.02,0-2.69.2-.77.24-1.27,1.43-1.51,1.97-.03.08-.08.1-.17.08l-.31-.08c-.05-.02-.1-.03-.07-.14.17-.61.77-2.81.8-2.99.03-.22.1-.27.17-.27.08,0,.14.02.2.07l.22.15c.31.22.48.27.97.29.9.03,1.61.1,3.21.1h.82c1.85,0,2.58-.07,3.42-.1.37-.02.6-.07.88-.24l.32-.2c.08-.05.14-.07.2-.07.08,0,.12.05.15.27.03.2.36,2.31.49,3.06.02.08-.02.12-.1.14l-.27.07c-.07.02-.09,0-.14-.12-.14-.32-.65-1.63-1.21-1.9-.51-.25-2.11-.29-2.94-.29h-.48v4.84c0,.24,0,5,.02,5.29.03.43.17.68.58.68h1.07c.15,0,.17.05.17.17v.36c0,.08-.02.14-.17.14-.17,0-.71-.05-2.38-.05s-2.35.05-2.58.05c-.14,0-.15-.07-.15-.17v-.32c0-.12.02-.17.12-.17h1.16c.34,0,.54-.2.56-.41.05-.49.05-5.71.05-6.03v-4.37Z"/>
    <path class="cls-1" d="M231.58,113.62c-.2-.15-.31-.2-.39-.2-.1,0-.17.12-.27.29-.1.19-.19.2-.31.2-.1,0-.19-.08-.15-.27.07-.43.24-2.58.29-3.08.02-.1.05-.1.12-.1l.25.02c.07,0,.1.03.1.14.02.54.05,1.1.61,1.97.51.8,1.44,1.26,2.38,1.26,1.02,0,2.31-.63,2.31-2.16,0-1.75-1.26-2.4-2.62-2.87-.53-.19-1.75-.61-2.48-1.38-.56-.56-.85-1.36-.85-2.48,0-.85.53-1.68,1.05-2.18.61-.58,1.46-.82,2.38-.82.97,0,1.72.29,2.01.42.15.08.24.07.32-.02l.22-.2c.08-.07.14-.1.22-.1s.14.14.14.29c0,.6.22,2.33.24,2.7,0,.08-.02.12-.08.14l-.2.05c-.05.02-.08,0-.1-.05-.14-.49-.36-1.16-1.05-1.89-.46-.49-1.05-.73-1.85-.73-1.51,0-2.06,1.12-2.06,1.99,0,.48.1,1.04.53,1.48.49.49,1.44.87,1.94,1.02,1.17.37,2.12.66,2.74,1.41.44.53.75,1.19.75,2.31,0,2.01-1.22,3.72-3.47,3.72-1.19,0-2.02-.36-2.7-.88Z"/>
  </g>
</svg>